<svg xmlns="http://www.w3.org/2000/svg" viewBox="0 0 144 144"><defs><style>.cls-1{fill:none;}.cls-2{fill:#ed1c24;}.cls-3{fill:#231f20;}.cls-4{fill:#f7941d;}</style></defs><title>liz_Fav</title><g id="Layer_2" data-name="Layer 2"><g id="Layer_1-2" data-name="Layer 1"><rect class="cls-1" width="144" height="144"/><path class="cls-2" d="M32.16,49.35,40.89,39H12.1l8.14,10.33.4,50.24-5.56,1S13,100.41,13,103.14c.06,2.53,1.36,1.71,3.74,1.71s48.55-.5,48.55-.5l6.75-18.76L58.17,99,32,99.19Z"/><polygon class="cls-3" points="69.29 79.63 43.87 79.63 52.01 70.99 52.01 46.67 44.77 39.72 67.8 39.02 61.39 50.76 61.05 71.89 69.29 79.63"/><polygon class="cls-4" points="133.14 41.16 73.2 41.16 69.29 61.12 83.26 45.81 112 45.26 72.75 103.1 121.95 103.1 129.44 78.49 113.34 96.95 95 98.86 133.14 41.16"/></g></g></svg>