<svg width="19px" height="19px" viewBox="0 0 19 19" version="1.1" xmlns="http://www.w3.org/2000/svg" xmlns:xlink="http://www.w3.org/1999/xlink">
    <!-- Generator: Sketch 51.3 (57544) - http://www.bohemiancoding.com/sketch -->
    <title>linkedin</title>
    <desc>Created with Sketch.</desc>
    <defs/>
    <g id="////-FINAL" stroke="none" stroke-width="1" fill="none" fill-rule="evenodd">
        <g id="LP" transform="translate(-993.000000, -736.000000)" fill="#000000">
            <g id="Group-14" transform="translate(843.000000, 735.000000)">
                <path d="M165.8303,17.1494 L165.8303,12.5184 C165.8303,11.1994 165.6453,10.2354 165.2763,9.6284 C164.7753,8.8644 163.9173,8.4814 162.7033,8.4814 C162.0963,8.4814 161.5563,8.6274 161.0803,8.9164 C160.6843,9.1544 160.3933,9.4584 160.2103,9.8274 L160.1703,9.8274 L160.1703,8.6784 L157.6373,8.6784 L157.6373,17.1494 L160.2493,17.1494 L160.2493,12.9544 C160.2493,12.2944 160.3423,11.7934 160.5263,11.4504 C160.7903,11.0024 161.2263,10.7764 161.8323,10.7764 C162.4393,10.7764 162.8353,11.0274 163.0193,11.5294 C163.1523,11.8454 163.2183,12.3474 163.2183,13.0334 L163.2183,17.1494 L165.8303,17.1494 Z M155.9753,17.1494 L156.0143,17.1494 L156.0143,8.6784 L153.3613,8.6784 L153.3613,17.1494 L155.9753,17.1494 Z M154.6683,7.5314 C155.0903,7.5314 155.4533,7.3794 155.7573,7.0764 C156.0593,6.7714 156.2123,6.4164 156.2123,6.0064 C156.2123,5.5984 156.0593,5.2424 155.7573,4.9384 C155.4533,4.6344 155.0903,4.4834 154.6683,4.4834 C154.2463,4.4834 153.8903,4.6344 153.6003,4.9384 C153.3093,5.2424 153.1643,5.5984 153.1643,6.0064 C153.1643,6.4164 153.3093,6.7714 153.6003,7.0764 C153.8903,7.3794 154.2463,7.5314 154.6683,7.5314 Z M167.0973,1.9504 C167.4393,1.9504 167.7363,2.0764 167.9873,2.3264 C168.2383,2.5764 168.3633,2.8734 168.3633,3.2164 L168.3633,18.4164 C168.3633,18.7594 168.2383,19.0564 167.9873,19.3064 C167.7363,19.5564 167.4393,19.6824 167.0973,19.6824 L151.8973,19.6824 C151.5553,19.6824 151.2583,19.5564 151.0073,19.3064 C150.7563,19.0564 150.6313,18.7594 150.6313,18.4164 L150.6313,3.2164 C150.6313,2.8734 150.7563,2.5764 151.0073,2.3264 C151.2583,2.0764 151.5553,1.9504 151.8973,1.9504 L167.0973,1.9504 Z" id="linkedin"/>
            </g>
        </g>
    </g>
</svg>