<svg width="21px" height="16px" viewBox="0 0 21 16" version="1.1" xmlns="http://www.w3.org/2000/svg" xmlns:xlink="http://www.w3.org/1999/xlink">
    <!-- Generator: Sketch 51.3 (57544) - http://www.bohemiancoding.com/sketch -->
    <title>email</title>
    <desc>Created with Sketch.</desc>
    <defs/>
    <g id="////-FINAL" stroke="none" stroke-width="1" fill="none" fill-rule="evenodd">
        <g id="LP" transform="translate(-843.000000, -738.000000)" fill="#000000">
            <g id="Group-14" transform="translate(843.000000, 735.000000)">
                <path d="M18.3664,17.1494 C18.5514,17.1494 18.7024,17.0894 18.8214,16.9714 C18.9394,16.8524 18.9994,16.7014 18.9994,16.5164 L18.9994,8.4024 C18.0754,9.1414 16.3474,10.5264 13.8144,12.5574 L13.4184,12.8754 C12.7854,13.4024 12.2844,13.7854 11.9144,14.0224 C11.2554,14.4184 10.6614,14.6164 10.1334,14.6164 C9.6044,14.6164 9.0114,14.4184 8.3514,14.0224 C7.9564,13.7854 7.4554,13.4024 6.8474,12.8754 L6.4524,12.5574 C3.9184,10.5264 2.1904,9.1414 1.2664,8.4024 L1.2664,16.5164 C1.2664,16.7014 1.3264,16.8524 1.4444,16.9714 C1.5634,17.0894 1.7154,17.1494 1.8994,17.1494 L18.3664,17.1494 Z M1.8994,4.4834 C1.7154,4.4834 1.5634,4.5434 1.4444,4.6614 C1.3264,4.7804 1.2664,4.9314 1.2664,5.1164 L1.2664,6.7394 C2.1904,7.5314 4.1814,9.1414 7.2434,11.5684 L7.5994,11.8844 C8.1284,12.3334 8.5504,12.6504 8.8664,12.8354 C9.3674,13.1784 9.7904,13.3494 10.1334,13.3494 C10.4754,13.3494 10.8984,13.1784 11.3994,12.8354 C11.6904,12.6504 12.0984,12.3334 12.6274,11.8844 L13.0224,11.5684 C16.0844,9.1414 18.0754,7.5314 18.9994,6.7394 L18.9994,5.1164 C18.9994,4.9314 18.9394,4.7804 18.8214,4.6614 C18.7024,4.5434 18.5514,4.4834 18.3664,4.4834 L1.8994,4.4834 Z M18.3664,3.2164 C18.8934,3.2164 19.3424,3.4014 19.7124,3.7704 C20.0814,4.1394 20.2654,4.5884 20.2654,5.1164 L20.2654,16.5164 C20.2654,17.0444 20.0814,17.4934 19.7124,17.8624 C19.3424,18.2314 18.8934,18.4164 18.3664,18.4164 L1.8994,18.4164 C1.3724,18.4164 0.9244,18.2314 0.5544,17.8624 C0.1844,17.4934 0.0004,17.0444 0.0004,16.5164 L0.0004,5.1164 C0.0004,4.5884 0.1844,4.1394 0.5544,3.7704 C0.9244,3.4014 1.3724,3.2164 1.8994,3.2164 L18.3664,3.2164 Z" id="email"/>
            </g>
        </g>
    </g>
</svg>