<svg width="18px" height="19px" viewBox="0 0 18 19" version="1.1" xmlns="http://www.w3.org/2000/svg" xmlns:xlink="http://www.w3.org/1999/xlink">
    <!-- Generator: Sketch 51.3 (57544) - http://www.bohemiancoding.com/sketch -->
    <title>medium</title>
    <desc>Created with Sketch.</desc>
    <defs/>
    <g id="////-FINAL" stroke="none" stroke-width="1" fill="none" fill-rule="evenodd">
        <g id="LP" transform="translate(-934.000000, -736.000000)" fill="#000000">
            <g id="Group-14" transform="translate(843.000000, 735.000000)">
                <path d="M105.9895,6.1455 L105.9895,5.9485 L102.7045,5.9485 L100.3695,11.8055 L97.6775,5.9485 L94.2335,5.9485 L94.2335,6.1455 L95.3425,7.4915 C95.4735,7.5975 95.5265,7.7285 95.5005,7.8875 L95.5005,13.1515 C95.5265,13.3365 95.4735,13.5075 95.3425,13.6665 L94.0755,15.1705 L94.0755,15.3685 L97.6375,15.3685 L97.6375,15.1705 L96.3715,13.6665 C96.2395,13.5075 96.1865,13.3365 96.2135,13.1515 L96.2135,8.5995 L99.3405,15.3685 L99.6965,15.3685 L102.3475,8.5995 L102.3475,14.0225 C102.3475,14.1285 102.3225,14.2085 102.2685,14.2595 L101.3185,15.2095 L101.3185,15.4085 L105.9895,15.4085 L105.9895,15.2095 L105.0405,14.2995 C104.9605,14.2205 104.9215,14.1285 104.9215,14.0225 L104.9215,7.3325 C104.9215,7.2275 104.9605,7.1345 105.0405,7.0555 L105.9895,6.1455 Z M91.2645,19.6825 L108.9975,19.6825 L108.9975,1.9505 L91.2645,1.9505 L91.2645,19.6825 Z" id="medium"/>
            </g>
        </g>
    </g>
</svg>