<svg width="21px" height="18px" viewBox="0 0 21 18" version="1.1" xmlns="http://www.w3.org/2000/svg" xmlns:xlink="http://www.w3.org/1999/xlink">
    <!-- Generator: Sketch 51.3 (57544) - http://www.bohemiancoding.com/sketch -->
    <title>twitter</title>
    <desc>Created with Sketch.</desc>
    <defs/>
    <g id="////-FINAL" stroke="none" stroke-width="1" fill="none" fill-rule="evenodd">
        <g id="LP" transform="translate(-874.000000, -737.000000)" fill="#000000">
            <g id="Group-14" transform="translate(843.000000, 735.000000)">
                <path d="M49.4738,7.2148 C49.4738,9.1138 49.0128,10.9478 48.0888,12.7168 C47.1388,14.5898 45.8058,16.0808 44.0908,17.1898 C42.2168,18.4288 40.0668,19.0498 37.6388,19.0498 C35.3168,19.0498 33.1928,18.4288 31.2658,17.1898 C31.5568,17.2158 31.8858,17.2288 32.2558,17.2288 C34.1818,17.2288 35.9108,16.6348 37.4408,15.4468 C36.5168,15.4468 35.7048,15.1778 35.0068,14.6358 C34.3078,14.0948 33.8258,13.4158 33.5618,12.5978 C33.8258,12.6238 34.0768,12.6368 34.3138,12.6368 C34.6838,12.6368 35.0528,12.5978 35.4218,12.5188 C34.4718,12.3078 33.6808,11.8188 33.0468,11.0538 C32.4138,10.2888 32.0978,9.4178 32.0978,8.4418 L32.0978,8.3618 C32.6778,8.7058 33.2978,8.8898 33.9578,8.9158 C33.4038,8.5208 32.9538,8.0188 32.6118,7.4118 C32.2688,6.8058 32.0978,6.1388 32.0978,5.4128 C32.0978,4.6888 32.2948,3.9948 32.6908,3.3348 C33.7198,4.6288 34.9808,5.6578 36.4708,6.4228 C37.9618,7.1878 39.5518,7.6108 41.2408,7.6898 C41.1878,7.3728 41.1608,7.0558 41.1608,6.7388 C41.1608,5.9998 41.3458,5.3078 41.7158,4.6608 C42.0848,4.0158 42.5868,3.5068 43.2198,3.1378 C43.8538,2.7688 44.5388,2.5828 45.2788,2.5828 C45.8848,2.5828 46.4458,2.7018 46.9598,2.9398 C47.4748,3.1768 47.9298,3.4938 48.3268,3.8898 C49.2758,3.7038 50.1608,3.3748 50.9778,2.9008 C50.6608,3.8768 50.0538,4.6418 49.1578,5.1948 C49.9498,5.0898 50.7408,4.8658 51.5328,4.5228 C50.9528,5.3668 50.2518,6.0938 49.4348,6.6998 C49.4598,6.8058 49.4738,6.9768 49.4738,7.2148" id="twitter"/>
            </g>
        </g>
    </g>
</svg>